<?xml version="1.0" encoding="utf-8"?>
<svg viewBox="0 0 543.196 206.736" xmlns="http://www.w3.org/2000/svg">
  <defs>
    <clipPath clipPathUnits="userSpaceOnUse" id="clipPath18">
      <path d="M 0,595 H 842 V 0 H 0 Z" id="path16"/>
    </clipPath>
  </defs>
  <g id="g10" transform="matrix(1.333333, 0, 0, -1.333333, -289.514221, 499.125092)">
    <g id="g12">
      <g id="g14" clip-path="url(#clipPath18)">
        <g id="g20" transform="translate(502.1738,231.4375)">
          <path d="M 0,0 H -5.02 V 2.03 H 2.669 V 0.26 l -4.79,-8.91 h -2.655 z m -10.946,-0.274 -1.863,-0.457 -0.488,1.921 3.067,0.915 h 1.602 V -8.65 h -2.318 z m -9.468,-8.559 c -0.712,0 -1.36,0.139 -1.945,0.419 -0.585,0.279 -1.083,0.666 -1.495,1.159 -0.413,0.493 -0.731,1.076 -0.955,1.747 -0.223,0.672 -0.335,1.394 -0.335,2.167 v 0.03 c 0,0.774 0.115,1.496 0.343,2.167 0.23,0.67 0.553,1.255 0.97,1.754 0.416,0.498 0.918,0.891 1.502,1.175 0.585,0.284 1.233,0.427 1.946,0.427 0.702,0 1.345,-0.139 1.93,-0.419 0.585,-0.28 1.084,-0.666 1.496,-1.159 0.411,-0.494 0.731,-1.076 0.961,-1.747 0.227,-0.672 0.343,-1.394 0.343,-2.167 v -0.031 c 0,-0.773 -0.116,-1.495 -0.343,-2.167 -0.23,-0.67 -0.553,-1.255 -0.97,-1.754 -0.417,-0.498 -0.918,-0.89 -1.502,-1.174 -0.585,-0.285 -1.233,-0.427 -1.946,-0.427 m 0.031,2.12 c 0.356,0 0.676,0.084 0.961,0.252 0.285,0.167 0.529,0.401 0.733,0.701 0.203,0.301 0.358,0.656 0.464,1.069 0.108,0.412 0.161,0.862 0.161,1.35 v 0.03 c 0,0.488 -0.056,0.939 -0.168,1.351 -0.112,0.412 -0.272,0.77 -0.48,1.074 -0.209,0.307 -0.459,0.546 -0.749,0.719 -0.289,0.173 -0.607,0.259 -0.953,0.259 -0.356,0 -0.676,-0.084 -0.961,-0.251 -0.285,-0.168 -0.526,-0.403 -0.725,-0.702 -0.198,-0.301 -0.353,-0.657 -0.464,-1.069 -0.113,-0.412 -0.168,-0.862 -0.168,-1.35 v -0.031 c 0,-0.488 0.055,-0.94 0.168,-1.357 0.111,-0.418 0.268,-0.775 0.471,-1.076 0.204,-0.3 0.45,-0.536 0.741,-0.71 0.29,-0.173 0.613,-0.259 0.969,-0.259 m -15.509,-0.076 3.555,2.914 c 0.336,0.274 0.621,0.521 0.856,0.739 0.233,0.219 0.423,0.428 0.571,0.627 0.147,0.197 0.255,0.391 0.32,0.579 0.067,0.189 0.1,0.394 0.1,0.618 0,0.458 -0.133,0.804 -0.397,1.038 -0.264,0.233 -0.611,0.35 -1.038,0.35 -0.416,0 -0.785,-0.117 -1.106,-0.35 -0.321,-0.234 -0.679,-0.595 -1.076,-1.083 l -1.648,1.327 c 0.265,0.356 0.532,0.672 0.801,0.946 0.27,0.274 0.56,0.506 0.871,0.694 0.311,0.188 0.653,0.33 1.029,0.427 0.376,0.097 0.803,0.145 1.282,0.145 0.548,0 1.05,-0.078 1.502,-0.237 0.454,-0.158 0.839,-0.378 1.161,-0.664 0.32,-0.284 0.569,-0.63 0.747,-1.037 0.178,-0.407 0.266,-0.859 0.266,-1.357 v -0.031 c 0,-0.448 -0.057,-0.847 -0.175,-1.198 -0.117,-0.351 -0.29,-0.68 -0.518,-0.991 -0.23,-0.311 -0.522,-0.621 -0.877,-0.932 -0.357,-0.309 -0.769,-0.648 -1.236,-1.013 l -1.74,-1.343 h 4.654 V -8.65 h -7.904 z M -53.033,2.03 h 4.166 c 0.834,0 1.599,-0.135 2.296,-0.405 0.697,-0.27 1.297,-0.643 1.8,-1.121 0.503,-0.479 0.893,-1.04 1.167,-1.687 0.275,-0.645 0.413,-1.344 0.413,-2.097 v -0.031 c 0,-0.751 -0.138,-1.454 -0.413,-2.105 -0.274,-0.651 -0.664,-1.216 -1.167,-1.694 -0.503,-0.478 -1.103,-0.854 -1.8,-1.128 -0.697,-0.276 -1.462,-0.412 -2.296,-0.412 h -4.166 z m 4.166,-8.56 c 0.478,0 0.915,0.076 1.311,0.229 0.398,0.153 0.736,0.37 1.016,0.656 0.279,0.285 0.498,0.621 0.655,1.007 0.158,0.387 0.238,0.819 0.238,1.297 v 0.03 c 0,0.468 -0.08,0.9 -0.238,1.297 -0.157,0.397 -0.376,0.738 -0.655,1.023 -0.28,0.284 -0.618,0.506 -1.016,0.664 -0.396,0.156 -0.833,0.235 -1.311,0.235 h -1.817 V -6.53 Z m -15.555,8.56 h 8.057 v -2.092 h -5.722 v -2.165 h 5.035 v -2.09 h -5.035 v -2.244 h 5.798 V -8.65 h -8.133 z m -12.762,0 h 2.35 V -2.197 H -70.5 V 2.03 h 2.35 V -8.65 h -2.35 v 4.287 h -4.334 V -8.65 h -2.35 z m -7.131,-10.833 c -0.814,0 -1.612,0.14 -2.395,0.419 -0.784,0.28 -1.496,0.71 -2.137,1.289 l 1.389,1.663 c 0.488,-0.395 0.989,-0.712 1.502,-0.945 0.514,-0.234 1.076,-0.352 1.686,-0.352 0.489,0 0.868,0.089 1.138,0.268 0.269,0.179 0.404,0.425 0.404,0.739 v 0.032 c 0,0.152 -0.028,0.287 -0.085,0.403 -0.056,0.118 -0.163,0.227 -0.319,0.329 -0.158,0.102 -0.378,0.203 -0.657,0.305 -0.28,0.101 -0.643,0.209 -1.091,0.32 -0.539,0.133 -1.027,0.279 -1.465,0.443 -0.436,0.162 -0.808,0.364 -1.113,0.602 -0.305,0.239 -0.542,0.537 -0.709,0.893 -0.168,0.356 -0.252,0.798 -0.252,1.328 v 0.029 c 0,0.489 0.091,0.929 0.274,1.32 0.183,0.392 0.44,0.73 0.771,1.015 0.33,0.285 0.725,0.504 1.182,0.656 0.458,0.152 0.961,0.229 1.51,0.229 0.784,0 1.503,-0.117 2.16,-0.351 0.656,-0.233 1.258,-0.57 1.807,-1.007 l -1.221,-1.769 c -0.477,0.325 -0.945,0.582 -1.403,0.77 -0.457,0.189 -0.916,0.282 -1.373,0.282 -0.457,0 -0.801,-0.089 -1.029,-0.266 -0.229,-0.179 -0.344,-0.4 -0.344,-0.664 v -0.031 c 0,-0.173 0.033,-0.323 0.099,-0.451 0.066,-0.127 0.185,-0.241 0.358,-0.342 0.173,-0.102 0.41,-0.199 0.711,-0.29 0.299,-0.092 0.678,-0.199 1.136,-0.32 0.538,-0.143 1.02,-0.303 1.441,-0.481 0.423,-0.179 0.779,-0.392 1.069,-0.642 0.289,-0.248 0.508,-0.542 0.656,-0.877 0.147,-0.335 0.22,-0.737 0.22,-1.205 v -0.03 c 0,-0.529 -0.096,-0.999 -0.29,-1.411 -0.192,-0.412 -0.462,-0.758 -0.808,-1.038 -0.345,-0.281 -0.757,-0.494 -1.235,-0.641 -0.479,-0.147 -1.008,-0.221 -1.587,-0.221 M -94.3,2.03 h 2.35 V -8.651 h -2.35 z m -10.719,0 h 2.35 v -8.544 h 5.325 V -8.65 h -7.675 z m -12.182,0 h 4.958 c 1.232,0 2.162,-0.316 2.793,-0.946 0.488,-0.489 0.732,-1.094 0.732,-1.815 v -0.032 c 0,-0.304 -0.037,-0.574 -0.114,-0.807 -0.076,-0.236 -0.178,-0.447 -0.305,-0.634 -0.128,-0.189 -0.275,-0.354 -0.442,-0.496 -0.168,-0.143 -0.348,-0.265 -0.542,-0.366 0.621,-0.235 1.108,-0.553 1.464,-0.954 0.357,-0.402 0.534,-0.959 0.534,-1.67 v -0.032 c 0,-0.487 -0.094,-0.914 -0.282,-1.281 -0.188,-0.366 -0.457,-0.671 -0.809,-0.916 -0.35,-0.243 -0.773,-0.427 -1.266,-0.549 -0.493,-0.122 -1.04,-0.182 -1.64,-0.182 h -5.081 z m 4.456,-4.319 c 0.519,0 0.931,0.09 1.236,0.268 0.304,0.178 0.457,0.465 0.457,0.862 v 0.03 c 0,0.357 -0.132,0.629 -0.397,0.817 -0.264,0.188 -0.645,0.282 -1.144,0.282 h -2.319 v -2.259 z m 0.625,-4.302 c 0.518,0 0.926,0.094 1.221,0.282 0.295,0.188 0.442,0.482 0.442,0.877 V -5.4 c 0,0.355 -0.137,0.637 -0.412,0.846 -0.275,0.209 -0.717,0.313 -1.327,0.313 h -2.716 v -2.35 z m -14.639,8.696 h 2.167 l 4.576,-10.755 h -2.456 l -0.976,2.394 h -4.517 l -0.976,-2.394 h -2.395 z m 2.472,-6.285 -1.419,3.463 -1.419,-3.463 z m -14.701,4.043 h -3.249 V 2.03 h 8.849 v -2.167 h -3.249 V -8.65 h -2.351 z m -9.618,-8.666 c -0.814,0 -1.613,0.14 -2.395,0.419 -0.784,0.28 -1.496,0.71 -2.137,1.289 l 1.388,1.663 c 0.489,-0.395 0.99,-0.712 1.503,-0.945 0.514,-0.234 1.076,-0.352 1.686,-0.352 0.489,0 0.867,0.089 1.137,0.268 0.27,0.179 0.404,0.425 0.404,0.739 v 0.032 c 0,0.152 -0.027,0.287 -0.084,0.403 -0.056,0.118 -0.163,0.227 -0.32,0.329 -0.158,0.102 -0.377,0.203 -0.656,0.305 -0.28,0.101 -0.643,0.209 -1.091,0.32 -0.539,0.133 -1.027,0.279 -1.465,0.443 -0.437,0.162 -0.809,0.364 -1.114,0.602 -0.305,0.239 -0.541,0.537 -0.709,0.893 -0.167,0.356 -0.252,0.798 -0.252,1.328 v 0.029 c 0,0.489 0.092,0.929 0.275,1.32 0.183,0.392 0.44,0.73 0.77,1.015 0.331,0.285 0.725,0.504 1.183,0.656 0.458,0.152 0.961,0.229 1.51,0.229 0.784,0 1.503,-0.117 2.159,-0.351 0.657,-0.233 1.259,-0.57 1.808,-1.007 l -1.221,-1.769 c -0.478,0.325 -0.946,0.582 -1.403,0.77 -0.457,0.189 -0.916,0.282 -1.373,0.282 -0.457,0 -0.801,-0.089 -1.03,-0.266 -0.229,-0.179 -0.343,-0.4 -0.343,-0.664 v -0.031 c 0,-0.173 0.033,-0.323 0.099,-0.451 0.066,-0.127 0.185,-0.241 0.358,-0.342 0.173,-0.102 0.41,-0.199 0.71,-0.29 0.3,-0.092 0.679,-0.199 1.137,-0.32 0.538,-0.143 1.019,-0.303 1.441,-0.481 0.423,-0.179 0.778,-0.392 1.068,-0.642 0.29,-0.248 0.508,-0.542 0.657,-0.877 0.146,-0.335 0.22,-0.737 0.22,-1.205 v -0.03 c 0,-0.529 -0.096,-0.999 -0.29,-1.411 -0.192,-0.412 -0.462,-0.758 -0.809,-1.038 -0.344,-0.281 -0.757,-0.494 -1.235,-0.641 -0.478,-0.147 -1.007,-0.221 -1.586,-0.221 M -163.794,2.03 h 8.056 v -2.092 h -5.722 v -2.165 h 5.035 v -2.09 h -5.035 v -2.244 h 5.797 V -8.65 h -8.131 z" style="fill:#98c73a;fill-opacity:1;fill-rule:nonzero;stroke:none" id="path22"/>
        </g>
        <g id="g24" transform="translate(580.8516,324.793)">
          <path d="m 0,0 h 20.948 c 3.068,0 5.814,-0.429 8.239,-1.283 2.411,-0.854 4.456,-2.059 6.149,-3.631 1.678,-1.557 2.976,-3.417 3.875,-5.599 0.9,-2.167 1.358,-4.577 1.358,-7.217 v -0.138 c 0,-2.974 -0.533,-5.598 -1.616,-7.842 -1.068,-2.242 -2.549,-4.119 -4.426,-5.63 -1.876,-1.525 -4.073,-2.654 -6.591,-3.418 -2.517,-0.747 -5.218,-1.129 -8.086,-1.129 H 11.275 V -51.266 H 0 Z m 20.216,-25.847 c 2.823,0 5.02,0.748 6.576,2.227 1.571,1.495 2.35,3.342 2.35,5.539 v 0.138 c 0,2.547 -0.825,4.469 -2.457,5.782 -1.633,1.328 -3.86,1.983 -6.699,1.983 H 11.275 V -25.847 Z M -63.563,0 h 12.16 L -37.93,-21.681 -24.457,0 h 12.159 v -51.266 h -11.198 v 33.475 l -14.434,-21.91 h -0.291 l -14.28,21.68 v -33.245 h -11.062 z m -84.954,-52.15 c -3.754,0 -7.247,0.686 -10.465,2.044 -3.221,1.373 -6.012,3.234 -8.347,5.614 -2.349,2.366 -4.181,5.157 -5.492,8.376 -1.328,3.235 -1.984,6.669 -1.984,10.33 v 0.153 c 0,3.661 0.656,7.094 1.984,10.299 1.311,3.188 3.143,5.995 5.492,8.421 2.335,2.412 5.142,4.319 8.422,5.707 3.265,1.389 6.882,2.09 10.833,2.09 2.395,0 4.577,-0.197 6.561,-0.579 1.968,-0.397 3.768,-0.931 5.386,-1.618 1.602,-0.687 3.098,-1.51 4.455,-2.487 1.373,-0.976 2.64,-2.059 3.814,-3.235 l -7.171,-8.269 c -2.014,1.8 -4.042,3.219 -6.118,4.241 -2.076,1.022 -4.41,1.542 -7.003,1.542 -2.136,0 -4.135,-0.413 -5.966,-1.251 -1.83,-0.824 -3.403,-1.968 -4.714,-3.434 -1.328,-1.464 -2.35,-3.158 -3.083,-5.095 -0.732,-1.923 -1.098,-3.983 -1.098,-6.18 v -0.152 c 0,-2.197 0.366,-4.272 1.098,-6.225 0.733,-1.954 1.74,-3.662 3.036,-5.127 1.298,-1.465 2.854,-2.624 4.685,-3.478 1.831,-0.855 3.844,-1.283 6.042,-1.283 2.929,0 5.417,0.534 7.446,1.618 2.013,1.068 4.027,2.533 6.042,4.394 l 7.171,-7.262 c -1.314,-1.404 -2.687,-2.686 -4.105,-3.799 -1.419,-1.13 -2.961,-2.091 -4.654,-2.9 -1.678,-0.808 -3.524,-1.418 -5.522,-1.83 -1.999,-0.413 -4.243,-0.625 -6.745,-0.625 M -196.623,0 h 11.275 v -51.266 h -11.275 z m -45.848,0 h 11.275 v -41.013 h 25.556 v -10.253 h -36.831 z m -37.351,-52.15 c -3.952,0 -7.598,0.702 -10.909,2.089 -3.326,1.389 -6.195,3.266 -8.605,5.646 -2.427,2.364 -4.303,5.142 -5.646,8.346 -1.343,3.188 -2.014,6.622 -2.014,10.283 v 0.153 c 0,3.661 0.686,7.094 2.044,10.299 1.373,3.188 3.266,5.995 5.692,8.421 2.41,2.412 5.294,4.319 8.636,5.707 3.341,1.389 7.003,2.09 10.954,2.09 3.952,0 7.599,-0.701 10.91,-2.09 3.325,-1.388 6.194,-3.265 8.605,-5.645 2.425,-2.366 4.302,-5.142 5.645,-8.346 1.342,-3.189 2.013,-6.621 2.013,-10.284 v -0.152 c 0,-3.662 -0.686,-7.096 -2.044,-10.299 -1.373,-3.19 -3.265,-5.997 -5.69,-8.422 -2.412,-2.411 -5.295,-4.318 -8.636,-5.707 -3.341,-1.387 -7.004,-2.089 -10.955,-2.089 m 0.152,10.404 c 2.243,0 4.318,0.412 6.226,1.251 1.907,0.824 3.523,1.97 4.866,3.433 1.343,1.465 2.396,3.16 3.159,5.097 0.748,1.923 1.128,3.983 1.128,6.179 v 0.153 c 0,2.197 -0.38,4.272 -1.128,6.225 -0.763,1.952 -1.831,3.662 -3.234,5.126 -1.39,1.465 -3.037,2.625 -4.944,3.479 -1.907,0.854 -3.982,1.282 -6.225,1.282 -2.288,0 -4.38,-0.413 -6.256,-1.251 -1.892,-0.824 -3.494,-1.968 -4.837,-3.434 -1.342,-1.464 -2.395,-3.158 -3.158,-5.095 -0.747,-1.923 -1.129,-3.983 -1.129,-6.18 v -0.152 c 0,-2.197 0.382,-4.272 1.129,-6.225 0.763,-1.954 1.831,-3.662 3.235,-5.127 1.388,-1.465 3.021,-2.624 4.898,-3.478 1.891,-0.855 3.967,-1.283 6.27,-1.283 M -360.382,0 h 11.275 v -20.278 h 20.812 V 0 h 11.274 v -51.266 h -11.274 v 20.582 h -20.812 v -20.582 h -11.275 z" style="fill:#435c1d;fill-opacity:1;fill-rule:nonzero;stroke:none" id="path26"/>
        </g>
        <g id="g28" transform="translate(536.2979,335.2529)">
          <path d="m 0,0 c -29.133,-11.8 -38.212,-3.01 -47.776,6.25 -5.92,5.732 -12.101,11.715 -28.449,8.498 l -2.277,11.662 c 22.401,4.41 30.877,-3.796 38.995,-11.657 6.7,-6.487 13.063,-12.646 35.046,-3.742 z" style="fill:#89ba27;fill-opacity:1;fill-rule:nonzero;stroke:none" id="path30"/>
        </g>
        <g id="g32" transform="translate(493.9189,273.5273)">
          <path d="m 0,0 c 0.99,13.83 -0.547,23.421 -3.544,30.263 -2.107,4.813 -5.005,8.294 -8.254,10.978 -4.918,-9.267 -16.691,-23.674 -41.785,-21.448 v 11.93 c 27.459,-2.824 33.357,19.921 33.376,19.989 0.76,2.329 2.353,6.567 8.643,3.624 C -4.22,51.192 2.791,45.359 7.326,35.001 10.97,26.687 12.91,15.516 11.911,0 Z" style="fill:#435c1d;fill-opacity:1;fill-rule:nonzero;stroke:none" id="path34"/>
        </g>
        <g id="g36" transform="translate(514.5439,372.6641)">
          <path d="m 0,0 c 5.943,0.213 10.935,-4.431 11.147,-10.375 0.214,-5.943 -4.43,-10.934 -10.375,-11.147 -5.943,-0.214 -10.933,4.43 -11.147,10.374 C -10.589,-5.205 -5.943,-0.214 0,0" style="fill:#89ba27;fill-opacity:1;fill-rule:evenodd;stroke:none" id="path38"/>
        </g>
        <g id="g40" transform="translate(615.4131,243.5645)">
          <path d="M 0,0 C -1.212,0 -2.4,0.208 -3.569,0.626 -4.733,1.042 -5.793,1.681 -6.75,2.547 l 2.068,2.475 c 0.73,-0.592 1.473,-1.06 2.24,-1.41 0.762,-0.346 1.6,-0.521 2.508,-0.521 0.729,0 1.292,0.133 1.695,0.397 0.402,0.266 0.6,0.635 0.6,1.104 V 4.635 C 2.361,4.861 2.319,5.064 2.239,5.24 2.154,5.411 1.993,5.576 1.761,5.728 1.523,5.879 1.197,6.03 0.781,6.182 0.364,6.333 -0.175,6.49 -0.842,6.66 -1.647,6.854 -2.371,7.076 -3.023,7.318 -3.678,7.56 -4.227,7.857 -4.682,8.213 c -0.458,0.359 -0.808,0.8 -1.059,1.329 -0.251,0.531 -0.374,1.188 -0.374,1.979 v 0.043 c 0,0.729 0.137,1.382 0.406,1.963 0.274,0.588 0.659,1.089 1.15,1.516 0.493,0.421 1.08,0.748 1.757,0.975 0.682,0.227 1.435,0.34 2.253,0.34 1.164,0 2.234,-0.174 3.214,-0.519 0.975,-0.351 1.874,-0.853 2.692,-1.501 L 3.54,11.7 c -0.715,0.484 -1.41,0.867 -2.092,1.147 -0.681,0.278 -1.362,0.421 -2.045,0.421 -0.68,0 -1.192,-0.132 -1.533,-0.398 -0.341,-0.265 -0.512,-0.597 -0.512,-0.989 v -0.043 c 0,-0.26 0.048,-0.483 0.148,-0.672 0.099,-0.189 0.279,-0.359 0.535,-0.511 0.255,-0.151 0.609,-0.293 1.056,-0.43 C -0.454,10.087 0.109,9.926 0.791,9.746 1.595,9.532 2.31,9.297 2.939,9.031 3.569,8.766 4.1,8.449 4.529,8.075 4.961,7.706 5.288,7.271 5.505,6.769 5.728,6.271 5.837,5.67 5.837,4.976 V 4.932 C 5.837,4.142 5.694,3.441 5.405,2.831 5.116,2.216 4.715,1.699 4.203,1.283 3.688,0.866 3.072,0.55 2.361,0.331 1.652,0.109 0.861,0 0,0 m -26.606,16.131 h 6.499 c 0.951,0 1.803,-0.133 2.555,-0.398 0.747,-0.264 1.382,-0.638 1.907,-1.127 0.521,-0.481 0.924,-1.059 1.203,-1.736 0.279,-0.672 0.421,-1.421 0.421,-2.239 v -0.042 c 0,-0.923 -0.166,-1.737 -0.501,-2.433 -0.332,-0.696 -0.791,-1.278 -1.373,-1.747 -0.583,-0.473 -1.264,-0.823 -2.044,-1.059 -0.783,-0.233 -1.62,-0.351 -2.509,-0.351 h -2.661 V 0.228 h -3.497 z m 6.271,-8.018 c 0.875,0 1.558,0.233 2.04,0.691 0.487,0.464 0.73,1.037 0.73,1.717 v 0.044 c 0,0.79 -0.257,1.386 -0.763,1.794 -0.507,0.412 -1.197,0.616 -2.078,0.616 h -2.703 V 8.113 Z m -31.761,8.018 h 3.773 l 4.179,-6.726 4.179,6.726 h 3.773 V 0.228 h -3.474 v 10.385 l -4.478,-6.798 h -0.089 l -4.431,6.726 V 0.228 h -3.432 z m -18.266,0.114 h 3.228 l 6.817,-16.017 h -3.66 l -1.453,3.569 h -6.726 l -1.453,-3.569 h -3.569 z m 3.682,-9.358 -2.116,5.16 -2.11,-5.16 z M -90.9,-0.047 c -1.164,0 -2.249,0.213 -3.247,0.635 -0.999,0.426 -1.866,1.003 -2.589,1.741 -0.73,0.734 -1.297,1.6 -1.704,2.599 -0.413,1.003 -0.616,2.068 -0.616,3.205 v 0.046 c 0,1.136 0.203,2.202 0.616,3.195 0.407,0.989 0.974,1.86 1.704,2.613 0.723,0.748 1.594,1.34 2.611,1.771 1.014,0.429 2.136,0.648 3.362,0.648 0.742,0 1.419,-0.061 2.035,-0.179 0.611,-0.123 1.168,-0.29 1.67,-0.503 0.497,-0.213 0.961,-0.468 1.383,-0.771 0.426,-0.303 0.819,-0.64 1.183,-1.004 l -2.224,-2.565 c -0.625,0.558 -1.255,0.999 -1.898,1.316 -0.644,0.317 -1.368,0.478 -2.173,0.478 -0.662,0 -1.283,-0.128 -1.851,-0.389 -0.568,-0.255 -1.055,-0.609 -1.463,-1.064 -0.412,-0.454 -0.729,-0.98 -0.956,-1.581 -0.227,-0.596 -0.34,-1.236 -0.34,-1.917 V 8.179 c 0,-0.681 0.113,-1.325 0.34,-1.931 0.227,-0.605 0.54,-1.136 0.942,-1.591 0.402,-0.454 0.886,-0.812 1.454,-1.079 0.567,-0.265 1.192,-0.396 1.874,-0.396 0.908,0 1.681,0.165 2.309,0.502 0.625,0.33 1.25,0.784 1.875,1.362 l 2.225,-2.253 c -0.407,-0.436 -0.833,-0.833 -1.274,-1.178 -0.44,-0.35 -0.918,-0.649 -1.444,-0.9 -0.519,-0.251 -1.092,-0.44 -1.713,-0.568 -0.62,-0.128 -1.315,-0.194 -2.091,-0.194 M -121.521,0 c -1.212,0 -2.4,0.208 -3.569,0.626 -1.165,0.416 -2.224,1.055 -3.181,1.921 l 2.069,2.475 c 0.729,-0.592 1.472,-1.06 2.238,-1.41 0.763,-0.346 1.601,-0.521 2.509,-0.521 0.728,0 1.292,0.133 1.694,0.397 0.403,0.266 0.602,0.635 0.602,1.104 v 0.043 c 0,0.226 -0.042,0.429 -0.123,0.605 -0.085,0.171 -0.246,0.336 -0.479,0.488 -0.236,0.151 -0.563,0.302 -0.979,0.454 -0.416,0.151 -0.956,0.308 -1.623,0.478 -0.806,0.194 -1.53,0.416 -2.182,0.658 -0.654,0.242 -1.202,0.539 -1.657,0.895 -0.459,0.359 -0.81,0.8 -1.06,1.329 -0.251,0.531 -0.375,1.188 -0.375,1.979 v 0.043 c 0,0.729 0.138,1.382 0.408,1.963 0.274,0.588 0.658,1.089 1.15,1.516 0.491,0.421 1.079,0.748 1.756,0.975 0.681,0.227 1.434,0.34 2.253,0.34 1.164,0 2.234,-0.174 3.215,-0.519 0.973,-0.351 1.874,-0.853 2.692,-1.501 l -1.818,-2.638 c -0.714,0.484 -1.41,0.867 -2.092,1.147 -0.682,0.278 -1.363,0.421 -2.045,0.421 -0.681,0 -1.193,-0.132 -1.532,-0.398 -0.341,-0.265 -0.512,-0.597 -0.512,-0.989 v -0.043 c 0,-0.26 0.047,-0.483 0.146,-0.672 0.1,-0.189 0.28,-0.359 0.536,-0.511 0.255,-0.151 0.61,-0.293 1.055,-0.43 0.45,-0.138 1.013,-0.299 1.695,-0.479 0.804,-0.214 1.518,-0.449 2.148,-0.715 0.63,-0.265 1.16,-0.582 1.591,-0.956 0.43,-0.369 0.758,-0.804 0.974,-1.306 0.223,-0.498 0.332,-1.099 0.332,-1.793 V 4.932 c 0,-0.79 -0.142,-1.491 -0.431,-2.101 -0.288,-0.615 -0.691,-1.132 -1.202,-1.548 -0.516,-0.417 -1.131,-0.733 -1.841,-0.952 -0.71,-0.222 -1.5,-0.331 -2.362,-0.331 m -22.447,12.903 h -4.837 v 3.228 h 13.173 v -3.228 h -4.838 V 0.228 h -3.498 z m -25.901,3.228 h 7.27 c 2.012,0 3.559,-0.539 4.634,-1.613 0.909,-0.91 1.363,-2.122 1.363,-3.636 V 10.84 c 0,-1.288 -0.312,-2.339 -0.941,-3.148 -0.631,-0.809 -1.454,-1.406 -2.467,-1.785 l 3.886,-5.679 h -4.089 l -3.408,5.087 h -0.048 -2.702 V 0.228 h -3.498 z m 7.043,-7.724 c 0.861,0 1.524,0.203 1.988,0.615 0.459,0.407 0.692,0.952 0.692,1.633 v 0.047 c 0,0.758 -0.242,1.326 -0.73,1.704 -0.483,0.379 -1.154,0.569 -2.02,0.569 h -3.475 V 8.407 Z m -24.401,-8.454 c -1.225,0 -2.358,0.217 -3.383,0.649 -1.034,0.43 -1.923,1.013 -2.67,1.752 -0.754,0.732 -1.336,1.594 -1.752,2.587 -0.416,0.99 -0.625,2.055 -0.625,3.192 v 0.046 c 0,1.136 0.213,2.202 0.635,3.195 0.426,0.989 1.012,1.86 1.764,2.613 0.748,0.748 1.643,1.34 2.68,1.771 1.037,0.429 2.173,0.648 3.398,0.648 1.226,0 2.357,-0.219 3.384,-0.648 1.033,-0.431 1.923,-1.014 2.67,-1.752 0.753,-0.734 1.335,-1.595 1.751,-2.589 0.417,-0.989 0.626,-2.055 0.626,-3.19 V 8.179 c 0,-1.135 -0.214,-2.2 -0.635,-3.194 -0.427,-0.989 -1.012,-1.861 -1.765,-2.613 -0.748,-0.749 -1.643,-1.34 -2.679,-1.77 -1.037,-0.432 -2.173,-0.649 -3.399,-0.649 m 0.047,3.229 c 0.697,0 1.339,0.127 1.931,0.387 0.593,0.256 1.095,0.611 1.511,1.066 0.416,0.454 0.743,0.979 0.979,1.581 0.233,0.596 0.351,1.234 0.351,1.917 v 0.046 c 0,0.682 -0.118,1.326 -0.351,1.932 -0.236,0.606 -0.567,1.135 -1.004,1.589 -0.429,0.455 -0.941,0.815 -1.532,1.08 -0.593,0.266 -1.236,0.398 -1.932,0.398 -0.71,0 -1.359,-0.128 -1.94,-0.389 -0.588,-0.255 -1.085,-0.609 -1.501,-1.064 -0.416,-0.454 -0.743,-0.98 -0.979,-1.581 -0.233,-0.596 -0.351,-1.236 -0.351,-1.917 V 8.179 c 0,-0.681 0.118,-1.325 0.351,-1.931 0.236,-0.605 0.567,-1.136 1.002,-1.591 0.431,-0.454 0.938,-0.812 1.52,-1.079 0.587,-0.265 1.23,-0.396 1.945,-0.396 m -28.717,12.949 h 6.499 c 0.951,0 1.803,-0.133 2.556,-0.398 0.747,-0.264 1.382,-0.638 1.907,-1.127 0.52,-0.481 0.923,-1.059 1.202,-1.736 0.279,-0.672 0.421,-1.421 0.421,-2.239 v -0.042 c 0,-0.923 -0.166,-1.737 -0.502,-2.433 -0.331,-0.696 -0.79,-1.278 -1.372,-1.747 -0.583,-0.473 -1.264,-0.823 -2.044,-1.059 -0.782,-0.233 -1.619,-0.351 -2.509,-0.351 H -212.4 V 0.228 h -3.497 z m 6.272,-8.018 c 0.875,0 1.557,0.233 2.039,0.691 0.487,0.464 0.73,1.037 0.73,1.717 v 0.044 c 0,0.79 -0.256,1.386 -0.763,1.794 -0.506,0.412 -1.197,0.616 -2.078,0.616 H -212.4 V 8.113 Z M -230.547,0 c -1.212,0 -2.401,0.208 -3.569,0.626 -1.165,0.416 -2.224,1.055 -3.181,1.921 l 2.068,2.475 c 0.73,-0.592 1.473,-1.06 2.239,-1.41 0.762,-0.346 1.6,-0.521 2.509,-0.521 0.729,0 1.292,0.133 1.694,0.397 0.402,0.266 0.601,0.635 0.601,1.104 v 0.043 c 0,0.226 -0.042,0.429 -0.122,0.605 -0.086,0.171 -0.247,0.336 -0.479,0.488 -0.237,0.151 -0.563,0.302 -0.98,0.454 -0.416,0.151 -0.956,0.308 -1.623,0.478 -0.805,0.194 -1.528,0.416 -2.182,0.658 -0.654,0.242 -1.202,0.539 -1.657,0.895 -0.458,0.359 -0.809,0.8 -1.06,1.329 -0.251,0.531 -0.374,1.188 -0.374,1.979 v 0.043 c 0,0.729 0.138,1.382 0.407,1.963 0.275,0.588 0.658,1.089 1.151,1.516 0.491,0.421 1.079,0.748 1.755,0.975 0.683,0.227 1.435,0.34 2.253,0.34 1.165,0 2.234,-0.174 3.215,-0.519 0.974,-0.351 1.874,-0.853 2.692,-1.501 l -1.817,-2.638 c -0.715,0.484 -1.41,0.867 -2.093,1.147 -0.68,0.278 -1.362,0.421 -2.044,0.421 -0.681,0 -1.193,-0.132 -1.533,-0.398 -0.341,-0.265 -0.511,-0.597 -0.511,-0.989 v -0.043 c 0,-0.26 0.047,-0.483 0.146,-0.672 0.1,-0.189 0.279,-0.359 0.536,-0.511 0.255,-0.151 0.61,-0.293 1.055,-0.43 0.45,-0.138 1.013,-0.299 1.694,-0.479 0.804,-0.214 1.519,-0.449 2.149,-0.715 0.63,-0.265 1.16,-0.582 1.59,-0.956 0.431,-0.369 0.758,-0.804 0.976,-1.306 0.222,-0.498 0.331,-1.099 0.331,-1.793 V 4.932 c 0,-0.79 -0.143,-1.491 -0.431,-2.101 -0.289,-0.615 -0.691,-1.132 -1.202,-1.548 -0.516,-0.417 -1.132,-0.733 -1.842,-0.952 C -228.895,0.109 -229.686,0 -230.547,0 m -34.015,16.131 h 3.498 V 3.408 h 7.929 v -3.18 h -11.427 z m -16.312,-16.154 c -2.135,0 -3.819,0.591 -5.045,1.77 -1.227,1.184 -1.842,2.949 -1.842,5.297 v 9.087 h 3.498 V 7.134 c 0,-1.302 0.303,-2.282 0.909,-2.941 0.606,-0.657 1.448,-0.988 2.527,-0.988 1.075,0 1.917,0.316 2.524,0.956 0.605,0.634 0.908,1.591 0.908,2.859 v 9.111 h 3.498 V 7.157 c 0,-1.212 -0.16,-2.267 -0.488,-3.157 -0.326,-0.895 -0.79,-1.643 -1.4,-2.239 -0.607,-0.602 -1.34,-1.046 -2.201,-1.34 -0.867,-0.297 -1.827,-0.444 -2.888,-0.444 m -27.312,16.154 h 12.108 V 12.95 h -8.609 V 9.566 h 7.587 V 6.385 h -7.587 V 0.228 h -3.499 z m -17.561,-9.632 -6.11,9.632 h 4.089 l 3.792,-6.385 3.862,6.385 h 3.976 l -6.11,-9.566 V 0.228 h -3.499 z m -22.744,9.746 h 3.229 l 6.816,-16.017 h -3.659 l -1.453,3.569 h -6.726 l -1.453,-3.569 h -3.57 z m 3.683,-9.358 -2.116,5.16 -2.11,-5.16 z m -28.968,9.244 h 3.497 V 3.408 h 7.929 v -3.18 h -11.426 z m -20.946,0 h 6.499 c 0.952,0 1.804,-0.133 2.556,-0.398 0.748,-0.264 1.382,-0.638 1.908,-1.127 0.52,-0.481 0.923,-1.059 1.202,-1.736 0.279,-0.672 0.42,-1.421 0.42,-2.239 v -0.042 c 0,-0.923 -0.165,-1.737 -0.501,-2.433 -0.331,-0.696 -0.791,-1.278 -1.372,-1.747 -0.583,-0.473 -1.264,-0.823 -2.045,-1.059 -0.781,-0.233 -1.618,-0.351 -2.508,-0.351 h -2.661 V 0.228 h -3.498 z m 6.272,-8.018 c 0.875,0 1.557,0.233 2.039,0.691 0.488,0.464 0.73,1.037 0.73,1.717 v 0.044 c 0,0.79 -0.256,1.386 -0.762,1.794 -0.507,0.412 -1.198,0.616 -2.078,0.616 h -2.703 V 8.113 Z" style="fill:#435c1d;fill-opacity:1;fill-rule:nonzero;stroke:none" id="path42"/>
        </g>
        <path d="M 513.589,229.479 H 621.25 v -2.703 H 513.589 Z m -292.898,0 h 107.662 v -2.703 H 220.691 Z" style="fill:#89ba27;fill-opacity:1;fill-rule:nonzero;stroke:none" id="path44"/>
      </g>
    </g>
  </g>
</svg>