<?xml version="1.0" encoding="utf-8"?>
<svg viewBox="0 0 544.928 142.597" xmlns="http://www.w3.org/2000/svg">
  <defs>
    <clipPath clipPathUnits="userSpaceOnUse" id="clipPath18">
      <path d="M 0,595 H 842 V 0 H 0 Z" id="path16"/>
    </clipPath>
  </defs>
  <g id="g10" transform="matrix(1.333333, 0, 0, -1.333333, -289.514221, 499.125092)">
    <g id="g12">
      <g id="g14" clip-path="url(#clipPath18)">
        <g id="g20" transform="translate(502.1738,231.4375)"/>
        <g id="g24" transform="translate(580.8516,324.793)">
          <path d="m 0,0 h 20.948 c 3.068,0 5.814,-0.429 8.239,-1.283 2.411,-0.854 4.456,-2.059 6.149,-3.631 1.678,-1.557 2.976,-3.417 3.875,-5.599 0.9,-2.167 1.358,-4.577 1.358,-7.217 v -0.138 c 0,-2.974 -0.533,-5.598 -1.616,-7.842 -1.068,-2.242 -2.549,-4.119 -4.426,-5.63 -1.876,-1.525 -4.073,-2.654 -6.591,-3.418 -2.517,-0.747 -5.218,-1.129 -8.086,-1.129 H 11.275 V -51.266 H 0 Z m 20.216,-25.847 c 2.823,0 5.02,0.748 6.576,2.227 1.571,1.495 2.35,3.342 2.35,5.539 v 0.138 c 0,2.547 -0.825,4.469 -2.457,5.782 -1.633,1.328 -3.86,1.983 -6.699,1.983 H 11.275 V -25.847 Z M -63.563,0 h 12.16 L -37.93,-21.681 -24.457,0 h 12.159 v -51.266 h -11.198 v 33.475 l -14.434,-21.91 h -0.291 l -14.28,21.68 v -33.245 h -11.062 z m -84.954,-52.15 c -3.754,0 -7.247,0.686 -10.465,2.044 -3.221,1.373 -6.012,3.234 -8.347,5.614 -2.349,2.366 -4.181,5.157 -5.492,8.376 -1.328,3.235 -1.984,6.669 -1.984,10.33 v 0.153 c 0,3.661 0.656,7.094 1.984,10.299 1.311,3.188 3.143,5.995 5.492,8.421 2.335,2.412 5.142,4.319 8.422,5.707 3.265,1.389 6.882,2.09 10.833,2.09 2.395,0 4.577,-0.197 6.561,-0.579 1.968,-0.397 3.768,-0.931 5.386,-1.618 1.602,-0.687 3.098,-1.51 4.455,-2.487 1.373,-0.976 2.64,-2.059 3.814,-3.235 l -7.171,-8.269 c -2.014,1.8 -4.042,3.219 -6.118,4.241 -2.076,1.022 -4.41,1.542 -7.003,1.542 -2.136,0 -4.135,-0.413 -5.966,-1.251 -1.83,-0.824 -3.403,-1.968 -4.714,-3.434 -1.328,-1.464 -2.35,-3.158 -3.083,-5.095 -0.732,-1.923 -1.098,-3.983 -1.098,-6.18 v -0.152 c 0,-2.197 0.366,-4.272 1.098,-6.225 0.733,-1.954 1.74,-3.662 3.036,-5.127 1.298,-1.465 2.854,-2.624 4.685,-3.478 1.831,-0.855 3.844,-1.283 6.042,-1.283 2.929,0 5.417,0.534 7.446,1.618 2.013,1.068 4.027,2.533 6.042,4.394 l 7.171,-7.262 c -1.314,-1.404 -2.687,-2.686 -4.105,-3.799 -1.419,-1.13 -2.961,-2.091 -4.654,-2.9 -1.678,-0.808 -3.524,-1.418 -5.522,-1.83 -1.999,-0.413 -4.243,-0.625 -6.745,-0.625 M -196.623,0 h 11.275 v -51.266 h -11.275 z m -45.848,0 h 11.275 v -41.013 h 25.556 v -10.253 h -36.831 z m -37.351,-52.15 c -3.952,0 -7.598,0.702 -10.909,2.089 -3.326,1.389 -6.195,3.266 -8.605,5.646 -2.427,2.364 -4.303,5.142 -5.646,8.346 -1.343,3.188 -2.014,6.622 -2.014,10.283 v 0.153 c 0,3.661 0.686,7.094 2.044,10.299 1.373,3.188 3.266,5.995 5.692,8.421 2.41,2.412 5.294,4.319 8.636,5.707 3.341,1.389 7.003,2.09 10.954,2.09 3.952,0 7.599,-0.701 10.91,-2.09 3.325,-1.388 6.194,-3.265 8.605,-5.645 2.425,-2.366 4.302,-5.142 5.645,-8.346 1.342,-3.189 2.013,-6.621 2.013,-10.284 v -0.152 c 0,-3.662 -0.686,-7.096 -2.044,-10.299 -1.373,-3.19 -3.265,-5.997 -5.69,-8.422 -2.412,-2.411 -5.295,-4.318 -8.636,-5.707 -3.341,-1.387 -7.004,-2.089 -10.955,-2.089 m 0.152,10.404 c 2.243,0 4.318,0.412 6.226,1.251 1.907,0.824 3.523,1.97 4.866,3.433 1.343,1.465 2.396,3.16 3.159,5.097 0.748,1.923 1.128,3.983 1.128,6.179 v 0.153 c 0,2.197 -0.38,4.272 -1.128,6.225 -0.763,1.952 -1.831,3.662 -3.234,5.126 -1.39,1.465 -3.037,2.625 -4.944,3.479 -1.907,0.854 -3.982,1.282 -6.225,1.282 -2.288,0 -4.38,-0.413 -6.256,-1.251 -1.892,-0.824 -3.494,-1.968 -4.837,-3.434 -1.342,-1.464 -2.395,-3.158 -3.158,-5.095 -0.747,-1.923 -1.129,-3.983 -1.129,-6.18 v -0.152 c 0,-2.197 0.382,-4.272 1.129,-6.225 0.763,-1.954 1.831,-3.662 3.235,-5.127 1.388,-1.465 3.021,-2.624 4.898,-3.478 1.891,-0.855 3.967,-1.283 6.27,-1.283 M -360.382,0 h 11.275 v -20.278 h 20.812 V 0 h 11.274 v -51.266 h -11.274 v 20.582 h -20.812 v -20.582 h -11.275 z" style="fill:#435c1d;fill-opacity:1;fill-rule:nonzero;stroke:none" id="path26"/>
        </g>
        <g id="g28" transform="translate(536.2979,335.2529)">
          <path d="m 0,0 c -29.133,-11.8 -38.212,-3.01 -47.776,6.25 -5.92,5.732 -12.101,11.715 -28.449,8.498 l -2.277,11.662 c 22.401,4.41 30.877,-3.796 38.995,-11.657 6.7,-6.487 13.063,-12.646 35.046,-3.742 z" style="fill:#89ba27;fill-opacity:1;fill-rule:nonzero;stroke:none" id="path30"/>
        </g>
        <g id="g32" transform="translate(493.9189,273.5273)">
          <path d="m 0,0 c 0.99,13.83 -0.547,23.421 -3.544,30.263 -2.107,4.813 -5.005,8.294 -8.254,10.978 -4.918,-9.267 -16.691,-23.674 -41.785,-21.448 v 11.93 c 27.459,-2.824 33.357,19.921 33.376,19.989 0.76,2.329 2.353,6.567 8.643,3.624 C -4.22,51.192 2.791,45.359 7.326,35.001 10.97,26.687 12.91,15.516 11.911,0 Z" style="fill:#435c1d;fill-opacity:1;fill-rule:nonzero;stroke:none" id="path34"/>
        </g>
        <g id="g36" transform="translate(514.5439,372.6641)">
          <path d="m 0,0 c 5.943,0.213 10.935,-4.431 11.147,-10.375 0.214,-5.943 -4.43,-10.934 -10.375,-11.147 -5.943,-0.214 -10.933,4.43 -11.147,10.374 C -10.589,-5.205 -5.943,-0.214 0,0" style="fill:#89ba27;fill-opacity:1;fill-rule:evenodd;stroke:none" id="path38"/>
        </g>
        <g id="g40" transform="translate(615.4131,243.5645)"/>
      </g>
    </g>
  </g>
</svg>