<?xml version="1.0" standalone="no"?>
<!DOCTYPE svg PUBLIC "-//W3C//DTD SVG 20010904//EN"
 "http://www.w3.org/TR/2001/REC-SVG-20010904/DTD/svg10.dtd">
<svg version="1.0" xmlns="http://www.w3.org/2000/svg"
 width="414.000000pt" height="414.000000pt" viewBox="0 0 414.000000 414.000000"
 preserveAspectRatio="xMidYMid meet">
<metadata>
Created by potrace 1.14, written by Peter Selinger 2001-2017
</metadata>
<g transform="translate(0.000000,414.000000) scale(0.100000,-0.100000)"
fill="#000000" stroke="none">
<path d="M3088 4124 c-198 -46 -347 -227 -349 -426 -3 -202 126 -379 318 -438
283 -87 576 127 575 421 0 90 -14 145 -53 220 -93 174 -297 267 -491 223z"/>
<path d="M1044 3714 c-200 -24 -234 -31 -234 -49 0 -8 9 -61 21 -117 11 -57
22 -114 25 -128 14 -76 45 -225 47 -227 2 -1 20 2 42 7 130 27 380 34 500 14
192 -33 349 -112 509 -255 76 -67 90 -81 199 -184 349 -335 585 -440 972 -430
163 4 209 10 435 60 131 28 510 162 510 179 0 6 -21 61 -46 121 -25 61 -48
117 -51 125 -3 8 -23 59 -45 112 l-40 97 -28 -14 c-50 -26 -353 -122 -435
-139 -203 -40 -381 -43 -513 -8 -172 45 -275 114 -516 347 -199 192 -333 293
-494 374 -84 42 -257 97 -342 107 -19 2 -60 8 -90 13 -77 12 -306 10 -426 -5z"/>
<path d="M1583 2330 c-48 -29 -89 -91 -119 -183 -80 -242 -264 -491 -461 -620
-126 -83 -306 -158 -433 -181 -49 -8 -96 -16 -135 -21 -52 -8 -301 -8 -325 0
-10 3 -22 1 -26 -6 -4 -6 -7 -118 -7 -248 l0 -236 34 -7 c51 -10 383 -2 469
12 172 27 334 75 475 141 286 132 549 374 710 652 28 47 53 86 57 87 12 0 146
-139 192 -200 170 -222 272 -541 302 -945 5 -73 6 -363 1 -510 l-2 -60 238 0
c131 0 243 3 249 7 20 12 15 615 -6 738 -3 14 -7 52 -11 85 -20 193 -106 495
-190 673 -156 330 -367 557 -715 774 -108 67 -233 87 -297 48z"/>
</g>
</svg>
